HIERARCHY
ROOT Hips
{
  OFFSET -78.2937 95.2471 23.4479
  CHANNELS 6 Xposition Yposition Zposition Zrotation Xrotation Yrotation
  JOINT RightUpLeg
  {
    OFFSET -8.9458 -8.66707 0.101652
    CHANNELS 3 Zrotation Xrotation Yrotation
    JOINT RightLeg
    {
      OFFSET 0 -44.4227 1.3727
      CHANNELS 3 Zrotation Xrotation Yrotation
      JOINT RightFoot
      {
        OFFSET 0.253549 -42.0924 -1.46059
        CHANNELS 3 Zrotation Xrotation Yrotation
        JOINT RightToes
        {
          OFFSET 0.04 -4.41509 8.4991
          CHANNELS 3 Zrotation Xrotation Yrotation
          End Site
          {
            OFFSET -0.08 -0.137448 9.77979
          }
        }
      }
    }
  }
  JOINT Spine
  {
    OFFSET 0 11.8905 0
    CHANNELS 3 Zrotation Xrotation Yrotation
    JOINT Spine1
    {
      OFFSET 0 25.6574 0.127663
      CHANNELS 3 Zrotation Xrotation Yrotation
      JOINT HEad
      {
        OFFSET 0 8.73416 0.011341
        CHANNELS 3 Zrotation Xrotation Yrotation
        End Site
        {
          OFFSET -0.29 12.7742 2.51395
        }
      }
      JOINT LeftShoulder1
      {
        OFFSET 8.99 -0.362252 -0.22
        CHANNELS 3 Zrotation Xrotation Yrotation
        JOINT LeftArm
        {
          OFFSET 10.2827 -0.00338 0.322123
          CHANNELS 3 Zrotation Xrotation Yrotation
          JOINT LeftForeArm
          {
            OFFSET 32.7669 0.099144 -1.42434
            CHANNELS 3 Zrotation Xrotation Yrotation
            JOINT LeftHand
            {
              OFFSET 27.5643 0.085362 1.02216
              CHANNELS 3 Zrotation Xrotation Yrotation
              End Site
              {
                OFFSET 16.7443 -0.6 1.50291
              }
            }
          }
        }
      }
      JOINT RightShoulder
      {
        OFFSET -8.99 -0.362252 -0.22
        CHANNELS 3 Zrotation Xrotation Yrotation
        JOINT RightArm
        {
          OFFSET -10.2827 -0.00338 0.322123
          CHANNELS 3 Zrotation Xrotation Yrotation
          JOINT RightForeArm
          {
            OFFSET -32.8971 0.099144 -1.42434
            CHANNELS 3 Zrotation Xrotation Yrotation
            JOINT RightHand
            {
              OFFSET -27.4921 0.085362 1.02216
              CHANNELS 3 Zrotation Xrotation Yrotation
              End Site
              {
                OFFSET -16.6312 -0.6 1.50291
              }
            }
          }
        }
      }
    }
  }
  JOINT LeftUpLeg
  {
    OFFSET 8.9458 -8.66707 0.101652
    CHANNELS 3 Zrotation Xrotation Yrotation
    JOINT LeftLeg
    {
      OFFSET 0 -44.4227 1.3727
      CHANNELS 3 Zrotation Xrotation Yrotation
      JOINT LeftFoot
      {
        OFFSET -0.253549 -42.0924 -1.46059
        CHANNELS 3 Zrotation Xrotation Yrotation
        JOINT LeftToes
        {
          OFFSET -0.04 -4.41509 8.4991
          CHANNELS 3 Zrotation Xrotation Yrotation
          End Site
          {
            OFFSET 0.08 -0.047448 9.77979
          }
        }
      }
    }
  }
}
MOTION
Frames:	17
Frame Time:	0.0166667
-57.5908 84.9547 25.7356 7.6659 -0.642529 89.2331 -22.9942 -39.3582 -1.71963 20.4183 70.2028 -7.62431 0.0295143 -0.629305 3.51394 0.0462048 0.000533403 0.662642 4.38768 8.6332 -3.06057 0.721328 16.5933 -4.67262 12.7837 -0.911758 -28.1024 6.62086e-032 2.38542e-015 -1.59028e-015 -99.3843 -14.8364 -54.8186 -48.7709 61.8614 -76.077 7.21815 19.4659 -2.26649 9.5251 0.200323 -1.31444 49.9281 -27.3152 66.6983 -2.4966 -13.6698 41.5262 -46.537 20.5024 7.76094 20.776 -4.19165 -13.2096 -26.392 60.9672 10.6661 -26.0839 7.05854 4.19139 -1.31952e-009 1.56114e-007 -4.85867e-009 
-58.2467 85.3545 25.9061 7.95773 -0.674055 89.6582 -22.7455 -38.808 -2.35079 18.0383 69.0248 -5.86186 0.11536 1.67795 3.44894 0.0462048 0.000533403 0.662642 4.54568 8.78306 -3.31271 1.09364 16.8533 -5.20298 11.4755 -0.628915 -26.9692 2.34489e-031 8.44835e-015 -1.59028e-015 -98.9827 -14.6531 -53.5143 -47.6133 61.2132 -76.6608 7.21815 19.4659 -2.26649 12.036 -0.0873997 -3.30911 60.1704 -29.8511 67.6309 3.8954 0.404101 57.1539 -46.8547 21.1506 6.41434 20.4114 -4.3283 -12.2589 -25.4165 61.1407 8.3 -26.6668 7.54067 4.3712 -1.31952e-009 1.56114e-007 -4.85867e-009 
-59.0953 85.8556 25.9231 8.21268 -0.675069 90.0343 -22.4997 -38.235 -2.71808 15.8905 67.4467 -4.28844 0.292446 3.94717 3.33281 0.0462048 0.000533403 0.662642 4.60962 8.91522 -3.47604 1.29062 17.0811 -5.53944 10.4298 -0.362142 -25.9079 -1.82074e-031 -4.37326e-015 -2.38542e-015 -98.2848 -14.4445 -52.3847 -46.5799 60.6148 -77.1804 7.21815 19.4659 -2.26649 14.3903 -0.421659 -5.07968 70.1741 -33.296 68.4802 8.23193 16.3867 68.8551 -47.4651 21.1338 5.9621 20.1937 -4.48134 -11.1657 -24.505 60.9209 6.67069 -27.0138 8.70371 4.67643 -1.31952e-009 1.56114e-007 -4.85868e-009 
-60.1189 86.4624 25.7888 8.36493 -0.671112 90.5025 -22.2951 -37.6276 -2.63717 14.574 65.5132 -3.46737 0.65426 5.74052 3.13319 0.0462048 0.000533403 0.662642 4.61549 9.00206 -3.62701 1.36521 17.2267 -5.84538 9.7904 -0.0270645 -24.8805 -2.89663e-032 2.08724e-015 7.95139e-016 -97.4793 -14.2837 -51.4743 -45.8553 60.1871 -77.5367 7.21815 19.4659 -2.26649 16.5818 -0.795687 -6.701 79.7438 -37.1489 69.7355 10.7966 31.9349 77.925 -47.6289 20.7985 6.16426 20.0413 -4.72235 -10.1271 -23.2956 60.1588 5.51191 -27.1897 10.8689 5.2199 -1.31952e-009 1.56114e-007 -4.85867e-009 
-61.2969 87.2155 25.5165 8.39139 -0.682638 91.0934 -22.0972 -36.9557 -2.18019 13.7592 63.3137 -2.98032 1.27784 6.66251 2.8396 0.0462048 0.000533403 0.662642 4.5822 9.03313 -3.80878 1.3928 17.2745 -6.22588 9.5583 0.394248 -23.8472 -7.95139e-016 8.05078e-015 -3.97569e-015 -96.7799 -14.242 -50.7576 -45.5402 60.0134 -77.6954 7.21815 19.4659 -2.26649 18.5041 -1.18695 -8.1679 89.2394 -41.1298 71.8257 12.364 46.1193 85.3547 -46.8913 20.3212 6.88912 19.8763 -5.01635 -9.28024 -21.6936 58.7278 4.53889 -27.0964 13.9211 5.95829 -1.31952e-009 1.56114e-007 -4.85867e-009 
-62.6113 88.1583 25.1179 8.29396 -0.739794 91.7294 -21.8469 -36.2009 -1.53118 12.9306 60.9228 -2.16406 2.2158 6.36658 2.46648 0.0462048 0.000533403 0.662642 4.52564 9.01571 -4.01995 1.42904 17.2391 -6.68601 9.66269 0.841723 -22.8124 -5.51738e-033 -3.97569e-016 -7.95139e-016 -96.3164 -14.3423 -50.2005 -45.6104 60.0948 -77.6773 7.21815 19.4659 -2.26649 20.0379 -1.54934 -9.39413 98.9553 -45.0009 75.0172 13.755 58.7387 91.3786 -45.3459 19.7496 8.00793 19.6662 -5.27363 -8.71212 -19.9713 56.6175 3.63428 -26.6293 17.3173 6.70577 -1.31952e-009 1.56114e-007 -4.85867e-009 
-64.0411 89.3076 24.6083 8.07765 -0.862389 92.2908 -21.5472 -35.3553 -0.854737 11.8673 58.3443 -0.701161 3.48847 4.68424 2.06391 0.0462048 0.000533403 0.662642 4.44467 8.96065 -4.22743 1.48417 17.1389 -7.15291 10.0282 1.23961 -21.8223 -7.95139e-016 -4.27387e-015 -0 -96.0823 -14.5278 -49.7772 -45.9316 60.3452 -77.531 7.21815 19.4659 -2.26649 21.146 -1.83038 -10.2677 98.407 -45.0735 72.0637 11.4146 61.6961 99.5538 -42.7299 19.6807 8.44034 19.4216 -5.4125 -8.4538 -18.5189 53.9283 2.84398 -25.8312 20.3999 7.26533 -1.31951e-009 1.56114e-007 -4.85867e-009 
-65.5472 90.6517 24.0193 7.72728 -1.02413 92.6931 -21.3128 -34.4024 -0.276084 10.6204 55.4855 1.29599 5.1265 1.72632 1.71073 0.0462048 0.000533403 0.662642 4.30058 8.86426 -4.38877 1.52243 16.968 -7.53195 10.5934 1.55125 -20.9396 0 5.66536e-015 -0 -95.9592 -14.6664 -49.4435 -46.3127 60.6368 -77.337 7.21815 19.4659 -2.26649 21.8899 -2.00485 -10.7519 97.31 -44.8347 69.2798 8.63751 63.4236 107.24 -40.0206 19.6264 8.59968 19.1454 -5.42021 -8.42949 -17.5221 50.84 2.20354 -24.8124 22.6342 7.5079 -1.31952e-009 1.56114e-007 -4.85868e-009 
-67.0656 92.1575 23.4031 7.19958 -1.152 92.9357 -21.3245 -33.3098 0.0782495 9.31168 52.1649 3.45458 7.20786 -1.99643 1.486 0.0462048 0.000533403 0.662642 4.02618 8.70153 -4.47649 1.4836 16.6863 -7.76292 11.2952 1.7937 -20.2188 -7.95139e-016 -3.27995e-015 -0 -95.7802 -14.6059 -49.1262 -46.56 60.8501 -77.1954 7.21815 19.4659 -2.26649 22.3922 -2.09802 -10.9623 96.2364 -44.5162 67.0253 5.63365 64.4472 114.407 -37.3572 19.5955 8.36481 18.8057 -5.38405 -8.46013 -16.9181 47.596 1.66762 -23.5687 23.6995 7.35705 -1.31952e-009 1.56114e-007 -4.85867e-009 
-68.5007 93.7567 22.8422 6.45707 -1.16802 93.0879 -21.6805 -32.0787 0.0552039 7.96799 48.2818 5.38324 9.80248 -5.6245 1.42156 0.0462048 0.000533403 0.662642 3.56567 8.4431 -4.47844 1.32582 16.2477 -7.85208 12.0534 2.00729 -19.6948 -1.93108e-032 6.95746e-016 1.59028e-015 -95.3997 -14.2491 -48.7468 -46.5406 60.9143 -77.1867 7.21815 19.4659 -2.26649 22.7852 -2.17106 -11.1217 95.1162 -44.056 65.1159 2.48685 64.8028 121.108 -34.7301 19.6062 7.64987 18.3721 -5.42185 -8.39745 -16.5594 44.4441 1.20591 -22.0278 23.5397 6.80843 -1.31951e-009 1.56114e-007 -4.85868e-009 
-69.7705 95.3822 22.4074 5.51529 -1.04022 93.2735 -22.319 -30.7208 -0.431683 6.58142 43.9291 6.72842 12.8774 -8.39717 1.47472 0.0462048 0.000533403 0.662642 2.92902 8.08832 -4.41859 1.05865 15.6522 -7.87001 12.7691 2.21289 -19.3783 -3.97569e-016 1.49089e-015 -0 -94.7459 -13.592 -48.2567 -46.2354 60.8262 -77.3355 7.21815 19.4659 -2.26649 23.1571 -2.27678 -11.4132 94.0055 -43.4472 63.3924 -0.457968 64.6667 127.145 -32.018 19.6554 6.4655 17.8309 -5.60795 -8.23912 -16.3015 41.5355 0.858612 -20.2095 22.3753 5.97034 -1.31951e-009 1.56114e-007 -4.85867e-009 
-70.8649 97.0045 22.1014 4.45422 -0.789637 93.6498 -23.1159 -29.2024 -1.23579 5.32302 39.3566 6.99238 16.2151 -10.0145 1.55249 0.0462048 0.000533403 0.662642 2.18663 7.67398 -4.37383 0.725799 14.963 -7.91149 13.3416 2.40388 -19.2592 -1.98785e-016 1.93815e-015 -0 -93.8363 -12.7026 -47.6672 -45.7198 60.6297 -77.6176 7.21815 19.4659 -2.26649 23.5314 -2.43033 -11.8825 93.073 -42.8091 61.7831 -2.88908 64.2847 132.334 -29.0391 19.7297 4.87755 17.164 -5.9637 -8.08133 -16.0083 38.9058 0.687528 -18.2207 20.6081 5.01308 -1.31952e-009 1.56114e-007 -4.85868e-009 
-71.7945 98.5661 21.9123 3.3765 -0.472139 94.2888 -23.9268 -27.6568 -2.01515 4.46878 35.1923 5.8077 19.2578 -10.5161 1.53022 0.0462048 0.000533403 0.662642 1.48092 7.26537 -4.38789 0.380447 14.2831 -8.04007 13.6987 2.56436 -19.3074 -1.09332e-015 -3.60297e-015 3.18055e-015 -92.7546 -11.6769 -47.0471 -45.1043 60.3807 -77.9857 7.21815 19.4659 -2.26649 23.8911 -2.61784 -12.4748 92.4666 -42.2955 60.264 -4.73998 63.8134 136.663 -25.6927 19.8072 2.95447 16.3873 -6.4689 -7.99054 -15.6011 36.6197 0.771274 -16.1891 18.6001 4.07631 -1.31952e-009 1.56114e-007 -4.85867e-009 
-72.6071 100.016 21.7842 2.38186 -0.191911 95.1571 -24.5962 -26.3407 -2.4299 4.21376 32.0951 3.37314 21.1839 -9.84576 1.26282 0.0462048 0.000533403 0.662642 1.04965 6.93942 -4.46355 0.0761115 13.7184 -8.25529 13.8141 2.67837 -19.4708 -3.72721e-017 2.14315e-015 -0 -91.6307 -10.6124 -46.4779 -44.5036 60.1334 -78.375 7.21815 19.4659 -2.26649 24.2056 -2.81875 -13.1204 92.1953 -41.9691 58.8136 -6.06728 63.2988 140.156 -22.15 19.8441 0.839851 15.5739 -7.06753 -7.93456 -15.0962 34.7275 1.23717 -14.1665 16.6656 3.24218 -1.31952e-009 1.56114e-007 -4.85867e-009 
-73.3326 101.277 21.6742 1.57306 -0.0357191 96.1295 -25.0207 -25.524 -2.24389 4.65684 30.5653 0.354829 21.4175 -8.06327 0.718737 0.0462048 0.000533403 0.662642 1.02972 6.74543 -4.56452 -0.143308 13.3418 -8.49881 13.7035 2.73395 -19.6845 4.96962e-017 7.26806e-016 -0 -90.6234 -9.59881 -46.005 -44.0202 59.9373 -78.7136 7.21815 19.4659 -2.26649 24.4437 -3.01804 -13.7769 92.1678 -41.8057 57.4443 -6.90096 62.8133 142.744 -18.9152 19.8036 -1.14284 14.8479 -7.6739 -7.8472 -14.6859 33.3348 2.28212 -12.1762 14.9329 2.5387 -1.31952e-009 1.56114e-007 -4.85868e-009 
-73.9486 102.214 21.5986 1.03092 0.0013873 97.0477 -25.2102 -25.2941 -1.39267 5.78707 30.6828 -2.58603 20.2155 -5.46795 0.0556907 0.0462048 0.000533403 0.662642 1.28469 6.67588 -4.65038 -0.264078 13.1685 -8.6982 13.4152 2.73913 -19.8854 -2.48481e-016 4.85159e-015 7.95139e-016 -89.8937 -8.71223 -45.6234 -43.7269 59.828 -78.933 7.21815 19.4659 -2.26649 24.5912 -3.20733 -14.4243 92.3233 -41.7846 56.2618 -7.24925 62.5498 144.309 -16.638 19.7181 -2.57602 14.3397 -8.24066 -7.7221 -14.7395 32.6663 4.13353 -10.3496 13.3433 1.97959 -1.31952e-009 1.56114e-007 -4.85868e-009 
-74.4018 102.685 21.6044 0.788354 -0.0374274 97.7703 -25.1733 -25.4601 -0.0526001 7.37417 31.9664 -4.89888 18.4468 -2.44815 -0.528652 0.0462048 0.000533403 0.662642 1.56279 6.69138 -4.70241 -0.29302 13.1622 -8.81516 13.022 2.73391 -20.0184 -6.95746e-016 -1.21756e-015 -0 -89.5687 -8.00958 -45.2939 -43.655 59.8188 -78.9827 7.21815 19.4659 -2.26649 24.66 -3.3796 -15.0372 92.653 -41.9077 55.43 -7.15058 62.7039 144.767 -15.8219 19.6794 -3.15657 14.1794 -8.76265 -7.5999 -15.6292 32.9298 6.838 -8.96804 11.8781 1.59547 -1.31952e-009 1.56114e-007 -4.85867e-009 
